Coordinates
version=1
nRows=11
nColumns=33
inDegrees=yes

Units are S.I. units (second, meters, Newtons, ...)
Angles are in degrees.

endheader
time	ground_thorax_rot_x	ground_thorax_rot_y	ground_thorax_rot_z	ground_thorax_tx	ground_thorax_ty	ground_thorax_tz	clav_prot_r	clav_elev_r	scapula_abduction_r	scapula_elevation_r	scapula_upward_rot_r	scapula_winging_r	shoulder_elv_r	plane_of_elev_r	axial_rot_r	elbow_flexion_r	pro_sup_r	wrist_flex_r	wrist_dev_r	clav_prot_l	clav_elev_l	scapula_abduction_l	scapula_elevation_l	scapula_upward_rot_l	scapula_winging_l	shoulder_elv_l	plane_of_elev_l	axial_rot_l	elbow_flexion_l	pro_sup_l	wrist_flex_l	wrist_dev_l	
9.8300	-29.086716	-31.877166	41.745729	-39.374181	780.811537	-35.372723	27.749380	-45.000000	38.615019	-45.000000	-45.000000	-2264.384521	-2265.024392	161.429413	44.428636	1080.534457	165.907690	11.603079	14.768065	-0.735923	30.998898	-27.932650	-45.000000	-45.000000	-3156.636549	-2084.045642	26.139445	47.081162	709.578417	39.746406	12.615513	-15.326013	
9.8400	-29.431886	-31.645454	41.196893	-42.555031	782.343490	-35.561819	27.704905	-45.000000	38.602075	-45.000000	-45.000000	-2264.458604	-2264.921158	161.386752	44.210318	1080.497487	165.863529	11.648844	14.825011	-0.706287	31.060907	-28.077458	-45.000000	-45.000000	-3156.469276	-2083.995623	26.140918	46.928112	709.601483	39.944555	12.656207	-15.425798	
9.8500	-29.764988	-31.410512	40.660628	-45.714279	783.943953	-35.756577	27.658037	-45.000000	38.598719	-45.000000	-45.000000	-2264.533390	-2264.810925	161.351895	44.000462	1080.446411	165.785312	11.699058	14.880685	-0.676640	31.128908	-28.222136	-45.000000	-45.000000	-3156.305493	-2083.940712	26.134783	46.764892	709.614387	40.154776	12.701507	-15.529179	
9.8600	-30.091560	-31.172176	40.129540	-48.845796	785.614623	-35.959369	27.608462	-45.000000	38.595521	-45.000000	-45.000000	-2264.605276	-2264.698869	161.315429	43.794692	1080.392792	165.672751	11.752689	14.932327	-0.644732	31.198823	-28.367729	-45.000000	-45.000000	-3156.139428	-2083.883820	26.125645	46.599877	709.624765	40.375238	12.746043	-15.635541	
9.8700	-30.407912	-30.929651	39.607192	-51.943204	787.358015	-36.172842	27.553926	-45.000000	38.599117	-45.000000	-45.000000	-2264.679297	-2264.584084	161.279259	43.594328	1080.332328	165.530063	11.810174	14.980951	-0.612318	31.272472	-28.514069	-45.000000	-45.000000	-3155.975690	-2083.819992	26.112633	46.442258	709.628019	40.603768	12.792080	-15.745058	
9.8800	-30.719463	-30.682775	39.086119	-54.999166	789.176186	-36.398730	27.496558	-45.000000	38.601240	-45.000000	-45.000000	-2264.752125	-2264.471159	161.235051	43.393766	1080.276056	165.360366	11.870313	15.024335	-0.578639	31.344877	-28.663223	-45.000000	-45.000000	-3155.807744	-2083.754005	26.100916	46.293738	709.634078	40.833789	12.835223	-15.858628	
9.8900	-31.016518	-30.433758	38.577732	-58.006315	791.070319	-36.637522	27.439494	-45.000000	38.616191	-45.000000	-45.000000	-2264.832964	-2264.356045	161.189489	43.195210	1080.212234	165.170034	11.934098	15.065660	-0.549977	31.419800	-28.815063	-45.000000	-45.000000	-3155.641004	-2083.681003	26.086803	46.154501	709.633130	41.060016	12.882889	-15.977548	
9.9000	-31.309099	-30.177679	38.067584	-60.957016	793.039635	-36.887827	27.378738	-45.000000	38.624538	-45.000000	-45.000000	-2264.905532	-2264.240292	161.138049	42.985694	1080.155964	164.963299	12.002819	15.099098	-0.516476	31.492241	-28.973468	-45.000000	-45.000000	-3155.469273	-2083.612106	26.077458	46.015870	709.635611	41.272827	12.927141	-16.098468	
9.9100	-31.590048	-29.920175	37.567079	-63.844486	795.081692	-37.147212	27.313221	-45.000000	38.637883	-45.000000	-45.000000	-2264.980483	-2264.123296	161.084414	42.769936	1080.098459	164.748297	12.077429	15.127883	-0.484524	31.565082	-29.134829	-45.000000	-45.000000	-3155.298053	-2083.540144	26.067576	45.880626	709.637425	41.464969	12.973451	-16.222092	
9.9200	-31.870119	-29.656747	37.062209	-66.663187	797.192720	-37.412848	27.236765	-45.000000	38.639106	-45.000000	-45.000000	-2265.042906	-2264.005665	161.025183	42.535726	1080.047453	164.529523	12.160768	15.147603	-0.442962	31.635274	-29.302790	-45.000000	-45.000000	-3155.121933	-2083.473145	26.062059	45.740789	709.645262	41.628576	13.016434	-16.344485	
9.9300	-32.137472	-29.395049	36.569716	-69.409444	799.368465	-37.683108	27.156269	-45.000000	38.648166	-45.000000	-45.000000	-2265.111625	-2263.888860	160.961916	42.293002	1079.991261	164.314860	12.252593	15.164486	-0.405636	31.706398	-29.471549	-45.000000	-45.000000	-3154.948002	-2083.399636	26.053988	45.607794	709.648447	41.760695	13.065223	-16.466859	
